<svg width="166" height="66" viewBox="0 0 166 66" fill="none" xmlns="http://www.w3.org/2000/svg">
<path d="M47.0959 51.9933C54.9452 51.9933 57.3604 57.6287 57.3604 65.5451C63.5996 66.5515 64.8743 60.5135 61.7882 56.3541C59.373 53.1338 54.4756 51.3224 48.6389 51.3224C40.1187 51.3224 34.8858 55.2136 26.8353 55.2136C14.6252 55.2136 7.04426 46.2237 7.04426 27.1036C7.04426 10.1303 12.948 0.737968 21.8707 0.737968C29.4517 0.670881 32.5378 7.3797 33.9466 15.2961L39.8504 10.1303C36.2947 3.68985 30.1226 0 22.4074 0C9.25817 0 0 10.3987 0 28.3112C0 46.6934 9.79487 57.9642 24.0176 57.9642C34.3491 57.9642 38.9782 51.9933 47.0959 51.9933Z" fill="white"/>
<path d="M71.4531 44.5465C71.4531 46.6934 70.0442 48.5047 68.0316 49.1085L66.5557 49.5782V49.9136H83.3948V49.5782L81.9188 49.1085C79.9062 48.5047 78.4974 46.6934 78.4974 44.5465V26.1644C78.4974 19.053 76.1493 14.0885 70.0442 14.0885C63 14.0885 56.4253 20.8644 54.5469 32.0011V0.737968H54.2114L42.6052 4.22655V4.62908L44.0811 5.03161C46.0938 5.63541 47.5026 7.3797 47.5026 9.59361V44.5465C47.5026 46.7605 46.0938 48.5718 44.0811 49.1085L42.6052 49.5782V49.9136H59.4443V49.5782L57.9684 49.1085C55.9557 48.5718 54.5469 46.7605 54.5469 44.5465V39.1795C54.5469 26.4998 59.3101 18.248 65.7506 18.248C69.9101 18.248 71.4531 21.9378 71.4531 28.7808V44.5465Z" fill="white"/>
<path d="M138.691 25.6277C138.691 10.4658 128.694 0 113.6 0C98.5048 0 88.1062 10.4658 88.1062 25.2922C88.1062 40.5213 99.0415 50.987 115.478 50.249C100.92 48.8402 95.1504 39.9175 95.1504 25.7619C95.1504 10.4658 101.792 0.402528 113.6 0.402528C125.072 0.402528 131.646 9.79487 131.646 25.0239C131.646 38.2403 126.682 47.6326 118.027 47.6326C112.191 47.6326 108.098 43.4731 108.098 37.8377C108.098 35.4226 108.903 32.4036 112.459 30.3909C114.405 29.3846 116.417 28.9821 117.96 29.4517C117.558 27.4391 115.881 25.3593 113.264 26.0973C110.044 27.0365 107.428 31.5314 107.428 36.7643C107.428 43.7415 112.057 48.6389 119.839 48.6389C130.774 48.6389 138.691 39.1124 138.691 25.6277Z" fill="white"/>
<path d="M153.762 44.882C153.762 47.0288 152.354 48.8402 150.341 49.444L148.865 49.9136V50.249H165.704V49.9136L164.228 49.444C162.216 48.8402 160.807 47.0288 160.807 44.882V26.4998C160.807 19.3885 158.459 14.424 152.152 14.424C145.309 14.424 138.668 20.5961 136.856 32.3365L133.349 15.2961V18.3822C135.362 19.053 131.873 21.8037 131.873 23.9505V34.4162L129.812 44.882C129.812 47.0959 128.403 48.9073 126.39 49.444L124.914 49.9136V50.249H141.754V49.9136L140.278 49.444C138.265 48.9073 136.856 47.0959 136.856 44.882V39.5149C136.856 26.8353 141.619 18.5834 148.06 18.5834C152.219 18.5834 153.762 22.2733 153.762 29.1163V44.882Z" fill="white"/>
</svg>
