<svg width="33" height="34" viewBox="0 0 33 34" fill="none" xmlns="http://www.w3.org/2000/svg">
<path d="M23.502 23.3641L23.0305 23.8355C22.7702 24.0958 22.3481 24.0958 22.0877 23.8355L16.6666 18.4143L11.2454 23.8354C10.9851 24.0958 10.563 24.0958 10.3027 23.8354L9.83125 23.364C9.5709 23.1037 9.5709 22.6816 9.83125 22.4212L15.2524 17.0001L9.83125 11.5789C9.5709 11.3186 9.5709 10.8965 9.83125 10.6362L10.3026 10.1648C10.563 9.9044 10.9851 9.9044 11.2454 10.1648L16.6666 15.5859L22.0877 10.1647C22.3481 9.90439 22.7702 9.90439 23.0305 10.1647L23.502 10.6361C23.7623 10.8965 23.7623 11.3186 23.502 11.5789L18.0808 17.0001L23.502 22.4212C23.7623 22.6816 23.7623 23.1037 23.502 23.3641Z" fill="#4F4F4F"/>
</svg>
